<svg xmlns="http://www.w3.org/2000/svg" xmlns:xlink="http://www.w3.org/1999/xlink" version="1.1" id="Camada_1" x="0px" y="0px" style="enable-background:new 0 0 560 560;" xml:space="preserve" viewBox="92.05 97.69 375.89 364.6">
<style type="text/css">
	.st0{fill:#39B54A;stroke:#39B54A;stroke-miterlimit:10;}
</style>
<g>
	<path class="st0" d="M396.84,294.49c11.17,0.37,21.84,2.71,31.68,6.69c-3.36-42.78-24.8-80.46-56.7-105.43   c-2.79,10.8-7.48,20.82-13.68,29.72C378.16,242.98,392.2,267.12,396.84,294.49z"/>
	<path class="st0" d="M280.43,432.43c-10.49,0-20.66-1.39-30.34-3.95c-4.66,9.42-10.86,17.94-18.29,25.22   c15.18,5.22,31.45,8.09,48.41,8.09c16.95,0,33.23-2.87,48.41-8.09c-7.39-7.25-13.58-15.73-18.23-25.11   C300.81,431.09,290.78,432.43,280.43,432.43z"/>
	<path class="st0" d="M204.46,223.96c-6.08-9.11-10.58-19.36-13.14-30.36c-33.42,24.93-55.98,63.56-59.43,107.57   c9.98-4.04,20.81-6.38,32.16-6.7C168.82,266.33,183.53,241.58,204.46,223.96z"/>
	<path class="st0" d="M232.13,226.93c13.13,11.92,30.56,19.18,49.69,19.18c16.88,0,32.43-5.67,44.88-15.19   c10.79-8.25,19.23-19.4,24.18-32.29c3.16-8.22,4.9-17.15,4.9-26.48c0-40.84-33.11-73.96-73.96-73.96   c-40.84,0-73.96,33.11-73.96,73.96c0,7.12,1.03,13.99,2.9,20.51C214.62,206.02,222.11,217.84,232.13,226.93z M281.82,118   c29.91,0,54.16,24.25,54.16,54.16c0,5.85-0.95,11.47-2.67,16.74c-4.61,14.19-14.93,25.76-28.23,32.11   c-7.06,3.37-14.92,5.31-23.26,5.31c-9.96,0-19.27-2.74-27.29-7.43c-12.65-7.4-22.01-19.77-25.42-34.44   c-0.92-3.95-1.45-8.06-1.45-12.29C227.66,142.25,251.91,118,281.82,118z"/>
	<path class="st0" d="M240.47,387.44c0-35.15-24.52-64.54-57.39-72.07c-5.33-1.22-10.87-1.89-16.57-1.89   c-8.26,0-16.2,1.38-23.62,3.88c-29.26,9.86-50.34,37.5-50.34,70.08c0,40.84,33.11,73.96,73.96,73.96c21.58,0,41-9.25,54.52-24   c9.07-9.89,15.47-22.26,18.09-35.98C239.99,396.89,240.47,392.22,240.47,387.44z M203.2,427.2c-9.65,8.91-22.52,14.4-36.69,14.4   c-29.91,0-54.16-24.25-54.16-54.16c0-22.26,13.44-41.36,32.63-49.69c6.6-2.87,13.88-4.47,21.54-4.47c6.84,0,13.36,1.32,19.39,3.64   c20.33,7.81,34.78,27.46,34.78,50.53c0,0.88-0.09,1.74-0.13,2.62C219.84,404.74,213.32,417.86,203.2,427.2z"/>
	<path class="st0" d="M417.11,317.36c-7.42-2.5-15.36-3.88-23.62-3.88c-5.7,0-11.24,0.67-16.57,1.89   c-32.86,7.53-57.39,36.92-57.39,72.07c0,4.78,0.47,9.45,1.34,13.98c2.62,13.71,9.03,26.08,18.09,35.98   c13.52,14.75,32.94,24,54.52,24c40.84,0,73.96-33.11,73.96-73.96C467.45,354.86,446.37,327.22,417.11,317.36z M393.49,441.61   c-14.18,0-27.04-5.49-36.69-14.4c-10.12-9.34-16.64-22.46-17.34-37.14c-0.04-0.87-0.13-1.73-0.13-2.62   c0-23.07,14.45-42.72,34.78-50.53c6.03-2.31,12.55-3.64,19.39-3.64c7.66,0,14.93,1.61,21.54,4.47   c19.19,8.33,32.63,27.43,32.63,49.69C447.66,417.36,423.4,441.61,393.49,441.61z"/>
</g>
</svg>